<?xml version="1.0" encoding="UTF-8"?>
<svg xmlns="http://www.w3.org/2000/svg" onmouseup="{ if(window.parent.document.onmouseup) window.parent.document.onmouseup(arguments[0]);}" xml:space="preserve" style="enable-background:new 0 0 1672 1254;" viewBox="0 0 1672 1254" y="0px" x="0px" id="Layer_1" version="1.1" xmlns:xlink="http://www.w3.org/1999/xlink"><style type="text/css">
	.st0{fill:none;stroke:#2B1A10;stroke-width:2;}
	.st1{fill:none;stroke:#7D675E;stroke-width:2;}
	.st2{fill:none;stroke:#737272;stroke-width:2;}
	.st3{fill:none;stroke:#3A132B;stroke-width:2;}
	.st4{fill:none;stroke:#562342;stroke-width:2;}
	.st5{fill:none;stroke:#90366D;stroke-width:2;}
	.st6{fill:#563420;}
	.st7{fill:#F9CEBC;}
	.st8{fill:#E5E4E4;}
	.st9{fill:#AC4684;}
	.st10{fill:#742655;}
</style><g><path data-cppathid="10000" d="M686.1,353.4c0.4,2.4,1.8,8.3,4.5,9.2c4,1.4,5.5-5.9,5.9-9.1   c1.1-9,1-18-0.5-27c-0.8-5-4.7-11.8-6.4-19.7c-0.1-0.3-0.1-0.6,0-1c0.4-1.2,0.3-2.8-0.3-4.7c-4.9-17.1-13.3-31.5-25-43.3   c-2.9-2.9-8.1-7.1-15.4-12.7c-9.9-7.4-18.5-15.1-29.9-20.9c-38.8-19.6-79.9-22.3-121.5-10.4c-11.3,3.2-21.9,7.9-31.9,14.1   c-14.1,8.7-27.7,18.9-38.4,31.8c-27.9,33.5-43.7,73.8-47.4,117.3c-0.9,11.3-1.7,25.1-1,36.3c0.9,15.5,3.2,33.2,6.7,53   c0.4,2.1,1.7,4.4,2.1,6.7c1.6,8.7,4,16.5,5.8,24c3.3,13.8,3.8,28.7,5.9,42.9c1.5,10.3,2.7,21.4,3.7,33.1c1.5,18,3.5,38.8,6.1,62.3   c1.4,13.1,3.1,23.4,4.9,31c8.7,36.3,29.6,68.5,54.3,96.9c0.1,0.2,0.4,0.2,0.5,0c0.1-0.1,0.1-0.1,0.1-0.2c0-0.4-0.1-0.8-0.3-1.2   c-2.8-5.8-5.3-11.6-7.4-17.9c-8.8-26.5-13.3-49.7-11.6-75.8c1.8-28.9,6.1-49,12.2-83.8c2.5-14.2,4-24.5,4.5-31   c1.5-18.9,0.3-38.1-1.1-57c-0.6-8.5-1.7-17-3.1-25.4c-0.5-2.6-1.3-5.2-2.5-7.7c-3.9-8.4-7.3-16.1-9.8-25.3   c-0.1-0.4-0.5-0.6-0.9-0.5c0,0,0,0,0,0c-6.4,2.1-14-1-18.9-4.9c-11.9-9.4-15.4-24-13.7-39.1c1.8-15.8,13.8-28.6,30.7-21.6   c2.1,0.9,4.2,2.6,6.5,5.1c0.1,0.1,0.3,0.1,0.4,0c0,0,0.1-0.1,0.1-0.1c1.4-5.2,3.2-10.3,5.4-15.3c0.9-2.1,0.3-4.2,1.4-6.4   c7.1-15.5,10.2-31.2,9.2-47.2c-0.2-2.6-3.9-8.1,1.8-8.8c3.5-0.4,4.8,2.5,5,5.5c1.1,17-0.4,33.7-7.1,48.9c-0.2,0.5-0.3,1-0.3,1.4   c0,0.3,0.2,0.5,0.5,0.5c0,0,0,0,0.1,0c12.9-2,26.3-8.4,30.8-21.5c2.2-6.6,4.2-14.4,5.8-23.5c0.6-3.1,3.7-6,6.5-3.6   c5.2,4.4-2.2,38.8-4.1,45.7c-0.1,0.3,0.1,0.7,0.4,0.8c0.1,0,0.1,0,0.2,0c22.3-1.4,51.4-12.1,62.3-33c4.7-9,5.3-19.3,5.1-29.3   c0-1.7,0.2-2.8,0.5-3.5c1.4-2.5,5.3-2.5,6.7-0.1c1.2,2,2.1,4.6,2.7,7.8c2.9,15.9,2.6,32.1-0.8,48.7c-0.2,0.9,0.1,1.1,0.8,0.5   c14.2-10.9,17.5-25,20.3-42c0.3-1.7,0.7-3,1.2-3.7c2.3-3.2,6.2-1.3,7,2c4.3,17.9,0.5,33.9-6.1,50.6c-0.1,0.3,0,0.7,0.4,0.9   c0.1,0,0.2,0.1,0.3,0.1c11.6,0,23.5-0.4,35.2,0.7c6.3,0.5,15.3,0.1,17.5-7.3c2.8-9.7,3.5-19.5,2.2-29.5c-0.4-3.3-2.7-10.9,1.1-12.6   c6-2.6,6.2,7,7.2,9.8C678.1,326.4,683.7,339.1,686.1,353.4" class="st0" vector-effect="non-scaling-stroke"/><path data-cppathid="10001" d="M601.8,349.5c2-4.9,3.7-9.9,5.1-15c0.1-0.4-0.1-0.6-0.5-0.7   c-0.1,0-0.2,0.1-0.4,0.5c-4.5,7.8-12.9,17.4-21.8,20c-4.8,1.4-7.8-2.2-6.7-6.7c1.7-7,2.9-14.2,3.5-21.4c0.2-2.1,0.2-4,0.1-5.7   c-0.1-0.8-0.3-0.9-0.6-0.1c-11.8,26.9-47.2,40.1-74.4,40.4c-9.8,0.1-4.9-8-4-12.7c0.1-0.6,0-0.7-0.5-0.2   c-9,9.7-21.8,14.6-34.8,15.5c-0.3,0-0.5,0.2-0.7,0.5c-2.9,6.6-5.1,13.5-6.5,20.6c-0.1,0.3,0.1,0.6,0.4,0.7   c9.7,2.3,19.4,3.7,29.4,4.3c0.3,0,0.6-0.2,0.6-0.5c0.9-8.7,3.5-22,15.1-21.6c9.3,0.4,18.5,0.2,27.8-0.4c4.6-0.3,9.1,0,13.6,0.9   c2.1,0.5,4.1,0.7,5.9,0.6c9.4-0.3,14,0.2,15,10.9c0.4,4.2,0.6,8.3,0.8,12.5c0,0.3,0.1,0.3,0.3,0.1c2.2-3,5-1.2,7.5-1   c8.6,0.6,17.1,0.9,25.7,0.7c0.9,0,1.7,0.3,2.6,0.4c0.3,0.1,0.5-0.1,0.5-0.4c0.1-3.3,0.2-6.6,0.3-10c0.1-3.2,1.8-5.2,4.9-6   c16.1-4,32.3-5.6,48.6-4.9c3.3,0.1,5.7,0.6,7.1,1.2c6.5,3.2,8,15.7,8.2,22c0,0.4,0.3,0.6,0.7,0.6c2.9,0,8.1-0.6,10.5,1.1   c0.1,0.1,0.3,0.1,0.4-0.1c0,0,0.1-0.1,0-0.2c-0.1-10.4-0.7-20.8-1.9-31.2c0-0.3-0.2-0.4-0.5-0.3c-3.8,1-5.8-0.3-6-4.1   c-0.3-8.9-1.4-17.2-3.2-25c-0.8-3.4-1.3-3.4-1.4,0.1c-0.2,4.1-1.2,8.8-3.1,14.1c-3.8,10.5-13.6,11.9-23.4,11.4   c-13.4-0.7-26.8-0.1-40.1-1C599.8,358.9,599.9,354.2,601.8,349.5" class="st1" vector-effect="non-scaling-stroke"/><path data-cppathid="10002" d="M500.7,377.9c-3.4,9.4-4.3,20.5-4.4,30.3c0,3.6,5.8,4.8,8.7,5.5   c16.4,4,32,4.6,50.5,4.8c1.1,0,2.3-0.5,3.8-1.6c0.2-0.2,0.4-0.4,0.5-0.7c1.9-11.6,1.3-24.3,0.3-36.6c-0.1-1.4-0.3-2.5-0.7-3.5   c-0.1-0.3-0.4-0.5-0.8-0.5c-4.8-0.1-13.8,1-16.5-1.1c-0.3-0.2-0.6-0.3-0.9-0.3c-2.8-0.2-5-0.3-6.4-0.2c-9.8,0.7-19.6,1-29.5,0.8   C502.6,374.7,501.5,375.6,500.7,377.9" class="st2" vector-effect="non-scaling-stroke"/><path data-cppathid="10003" d="M673,414.4c4.3,2.2,2.4,6.9-2,7.4c-9.7,1.1-20,2.7-29,2.8   c-8.1,0.1-16.1-0.4-24.2-1.5c-15.3-2-13.9-12.6-13.2-24.6c0-0.4-0.2-0.6-0.6-0.5c-1.1,0.3-2.2,0.7-3.3,0.7   c-9.2,0.2-18.4-0.2-27.6-1.2c-2.4-0.3-3.3-0.9-4.5-2.8c-0.2-0.3-0.3-0.3-0.3,0.1c0.1,5.6,0,11.4-0.4,17.2c-0.2,3.8-0.1,7.5-3.8,8.4   c-0.3,0.1-0.6,0.3-0.7,0.6c-1,1.8-1,3.3-3.1,4.4c-2,1-4.8,0.8-7.2,0.8c-15.8-0.1-31.6-0.9-47.1-4.1c-3.7-0.8-7.2-1.9-10.6-3.4   c-9.5-4.1-6.7-13.6-6.3-21c0-0.4-0.2-0.6-0.5-0.6c-12.6-1.5-19.5-2.3-29.4-4.8c-2.7-0.7-5.2,0.6-7.3-2.2c-0.2-0.3-0.5-0.4-0.8-0.5   c-2.8-0.4-5.7-1.7-3.5-5.2c0.3-0.5,0.6-1,1-1.6c0.2-0.3,0.2-0.5,0-0.8c-4.9-6.4-14.1-6.6-19.3-0.4c-7.1,8.4-6.4,21.9-3.4,31.9   c2.3,7.6,7.5,13,15.5,16.2c6,2.4,8.9-3.6,14.3,1.5c0.7,0.6,1,1.2,1,1.7c0.4,7.4,4.7,16.8,7.9,23.1c1.3,2.5,3.5,6.6,6.6,12.1   c16,28.8,47.9,45.8,79.5,50.5c11.8,1.8,23.7,2.6,35.7,2.5c15.5-0.1,33.5-5.3,46.2-15.3c15-11.9,28.6-22,37.8-40.2   c9.8-19.6,14.2-41.5,15-64.1c0-0.3-0.1-0.4-0.4-0.3c-3.1,1.1-6.4,0.8-9.6,0.5c-0.4,0-0.6,0.1-0.6,0.5c0.2,4,0.6,8.3-1.8,11.8   C672.7,414.1,672.7,414.3,673,414.4" class="st1" vector-effect="non-scaling-stroke"/><path data-cppathid="10004" d="M665.8,411.9c2.2-6.3,0.5-10.6,0.6-16.8c0-5.3-1-10.5-3.1-15.5   c-0.1-0.3-0.4-0.6-0.7-0.7c-1.4-0.5-2.8-0.8-4.2-0.8c-15.4-0.7-30.5,0.6-45.5,4c-0.1,0-0.3,0.2-0.3,0.3c-0.7,8.2-1.1,16.4-1.1,24.7   c0,2.8,0.3,4.7,0.9,5.7c1.8,2.7,8.6,3.5,11.6,3.6c8.8,0.4,17.5,0.9,26.3,0c5.2-0.5,10.4-1.1,15.6-1.8c0.3,0,0.5-0.2,0.3-0.5   l-0.5-1.2C665.6,412.5,665.6,412.2,665.8,411.9" class="st2" vector-effect="non-scaling-stroke"/><path data-cppathid="10005" d="M473,562.1c-0.1,0.9-0.2,1.9-0.2,2.8c0,0.2,0.2,0.3,0.3,0.3   c0.1,0,0.1,0,0.2-0.1l5-3.8c0.2-0.2,0.4-0.4,0.4-0.7c0.6-3.3,1.9-8.5,3.9-15.7c3.1-11,4.5-23.3,4.1-36.7c-0.1-2.7-0.6-5.3-1.6-7.9   c-0.7-1.8,0.1-2.9-1.6-4.4c-4.3-4-8.2-8.2-11.6-12.6c-0.7-0.9-0.9-0.8-0.8,0.3c2.8,20.1,3.9,40.5,3.3,61.3   C474.4,550.7,473.9,556.4,473,562.1" class="st0" vector-effect="non-scaling-stroke"/><path data-cppathid="10006" d="M654.7,497.5c-4.6,1.4-8.3,5.4-11.1,8.3c-1.8,1.8-1.9,3.9-0.5,6   c0.2,0.3,0.2,0.6,0.2,0.9c-0.4,6.6,1.7,13.3,3.9,19.4c1,2.8,3.2,4,4,6.9c2.3,8.2,4.8,16.3,7.6,24.3c0.1,0.3,0.1,0.7-0.1,1l-0.9,1.4   c-0.2,0.3-0.3,0.5-0.3,0.8c0.1,4.7,3.7,9.8,6.4,13.4c1.6,2.2,4.5,3.1,6.1,0.4c1.4-2.3-0.7-5.9-2-8.1c-0.7-1.2-1.3-2.5-1.5-3.8   c-1.9-9-4-18.1-6.2-27c-0.9-3.8-1.6-9.1-1.4-14c0.4-7.4-0.2-14.8-1.7-22.1c-0.1-0.3-0.1-0.7,0-1c0.8-2.4,0.6-4.7-0.5-6.9" class="st0" vector-effect="non-scaling-stroke"/><path data-cppathid="10007" d="M489,550.3c-0.4,1.5-0.9,3.2-1.3,4.9c-0.1,0.3,0.1,0.6,0.4,0.7   c0.1,0,0.2,0,0.3,0c6.4-2.3,12.7-5.2,18.8-8.6c5.4-3,1.7-28.6,0.7-34.5c-0.6-3.5-2.4-4.9-5.6-4.4c-2.9,0.5-6-2.5-8.4-4.1   c-0.3-0.2-0.5-0.1-0.4,0.3C494.8,520.1,493.3,535.4,489,550.3" class="st0" vector-effect="non-scaling-stroke"/><path data-cppathid="10008" d="M651.8,566.5c-5.6-17.6-10.6-35.3-15.3-53.3c-0.1-0.3-0.4-0.5-0.7-0.4   c-0.1,0-0.1,0-0.2,0.1c-5.8,4.4-12.2,7.6-19.2,9.8c-0.2,0.1-0.4,0.3-0.3,0.5c0,0.1,0.1,0.2,0.2,0.2c1.5,1,2,2.2,2.2,4   c1.4,9.3,4.1,18.3,8,27c0.1,0.3,0.4,0.6,0.7,0.7c6.5,3.9,13.4,6.8,20.5,9.4c1.4,0.5,2.4,1.4,3.5,2.3c0.1,0.1,0.3,0.1,0.4-0.1   C651.8,566.7,651.8,566.6,651.8,566.5" class="st0" vector-effect="non-scaling-stroke"/><path data-cppathid="10009" d="M515.8,517.4c-0.9,2.2-1.9,3.8-1.5,6.2c0.7,4.5,1.1,9.1,1.4,13.6   c0.2,2.9,1.5,7.4,5.3,5.2c2.6-1.5,5.4-2.8,6.8-5.5c3.7-7.1,1.4-13.2-4.5-18c-2-1.6-4.4-1.3-6.8-1.9   C516.2,517,515.9,517.1,515.8,517.4" class="st0" vector-effect="non-scaling-stroke"/><path data-cppathid="10010" d="M569.8,544.2c-3.2-2.9-1.6-5-1.8-8.3c-0.1-2.2-0.5-4.4-1.1-6.5   c-0.2-0.9-1-1.5-1.9-1.6c-10.1-0.7-20.1-2.1-30-4.4c-0.3-0.1-0.4,0-0.4,0.4l1.7,12.3c0.2,1.1-0.3,2-1.2,2.6l-17.4,10.6   c-0.4,0.2-0.5,0.7-0.3,1.1c0,0.1,0.1,0.1,0.1,0.1c6.3,6.4,15.2,11.4,23.5,14.3c19.5,6.7,39.6,3.2,55.7-9.9c0.1-0.1,0.2-0.3,0.1-0.4   c-1.2-2.1-2.4-3.7-4.9-4.4c-5.4-1.5-10.7-3.1-16-4.9c-0.3-0.1-0.6-0.1-0.9,0C572.9,545.7,571.5,545.7,569.8,544.2" class="st1" vector-effect="non-scaling-stroke"/><path data-cppathid="10011" d="M595.9,528.3c0.1,4.9,1.2,10.2,2.9,14.8c0.2,0.6,0.6,1,1.1,1.4   c3.4,2.2,7.1,3.7,10.9,4.6c1.7,0.4,2.8,2.3,4.6,2.5c3.1,0.4,4.2-3.7,2.9-6c-1-1.7-3.5-2.1-3.9-4.9c-0.2-1.4-0.5-2.4-0.7-2.9   c-1.7-4-2.4-8.1-2.1-12.4c0-0.3-0.2-0.6-0.6-0.7c-0.1,0-0.2,0-0.2,0c-4.8,1.7-9.6,2.8-14.7,3.3C596,528.2,595.9,528.2,595.9,528.3" class="st0" vector-effect="non-scaling-stroke"/><path data-cppathid="10012" d="M574.3,529.8l1.1,7.3c0.1,0.4,0.3,0.6,0.7,0.8l13.6,4.1   c0.4,0.1,0.9-0.1,1-0.5c0-0.1,0-0.3,0-0.4c-0.8-3.3-2.2-7.9-1.7-11.5c0-0.4-0.2-0.7-0.6-0.7c0,0-0.1,0-0.1,0l-13.1-0.2   c-0.5,0-1,0.4-1,1C574.3,529.6,574.3,529.7,574.3,529.8" class="st0" vector-effect="non-scaling-stroke"/><path data-cppathid="10013" d="M497.2,639c0.1,1.9,0.4,3.4,0.8,4.7c0.1,0.3,0.4,0.6,0.7,0.7   c7.5,3.7,11,13.6,13,21.3c0.9,3.7,3.5,6.1,2.9,10.4c-0.1,1.1,0.4,2.3,1.3,2.9l3,2" class="st3" vector-effect="non-scaling-stroke"/><path data-cppathid="10014" d="M518.9,681c0.6,1.2,1,2.2,1.1,3.1c0,0.3,0.2,0.6,0.6,0.7   c8.4,2.2,13.6,5,20.5,8c2.6,1.1,5.1,2.5,7.5,4.1c2.6,1.8,5.3,3.4,8.1,5.1c4.1,2.4,7.8,5.3,11.7,8c2.5,1.7,5.2,1.8,7.9,3   c0.6,0.3,1.3,0.3,1.8,0c18.3-8.5,35.8-18.9,52.9-29.6c0.3-0.2,0.4-0.5,0.4-0.8c-1-9.3-2.8-18.4-5.5-27.4" class="st4" vector-effect="non-scaling-stroke"/><path data-cppathid="10015" d="M626,655c-0.2-1.7-0.7-3.2-1.4-4.6" class="st3" vector-effect="non-scaling-stroke"/><path data-cppathid="10016" d="M624.5,650.5c-1.8-5.8-3.8-11.5-6.1-17.1c-1.1-2.7-2.1-6.1,1.5-7.1" class="st4" vector-effect="non-scaling-stroke"/><path data-cppathid="10017" d="M619.9,626.3c0.1-0.2,0.3-0.2,0.6,0c0.3,0.2,0.4,0.5,0.3,0.8   c-0.4,3.5,1.3,3.7,3.9,4.4c0.3,0.1,0.5,0.3,0.5,0.6c0,3.3,2,5.9,2.8,8.3c0.6,1.6,1.2,3.2,1.9,4.7c1,2.1,0.4,4.6,1,6.9   c1.5,5.4,3.3,10.6,5.6,15.6" class="st3" vector-effect="non-scaling-stroke"/><path data-cppathid="10018" d="M636.5,667.6l2,10.4c0.1,0.3,0.3,0.4,0.6,0.4c0.1,0,0.1,0,0.2-0.1   c4.7-3,10.1-7,15.5-8.4c0.8-0.2,1.4-0.8,1.6-1.5c1.5-4.7,3.7-16.6,9.7-17.5c3.8-0.6,5.5,2.5,7.3,5.3c0.3,0.4,0.5,0.4,0.7,0   c2.4-5.6,5.5-10.7,9.5-15.3c0.3-0.3,0.3-0.7,0.3-1c-3.2-14.2-7.8-27.8-13.7-41c-1.4-3.1-4.7-6.7-6.4-9.2   c-5.3-7.5-9.6-13.8-18.4-17.5c-5.5-2.4-9.4-4.2-14.2-6.3c-0.6-0.2-1.1-0.2-1.5,0.2c-4.1,3.2-7.2-5-10.2-6.6   c-2.4-1.3-8.4-4.6-11.9-4.1c-0.3,0.1-0.6,0.2-0.8,0.5c-2.4,3.1-5.7,6.1-10,9c-12.5,8.2-25.8,11.9-39.9,10.9   c-16.7-1.2-32.8-8.9-44.8-20.6c-0.7-0.7-1.7-0.8-2.6-0.3c-6.6,3.7-13.5,6.2-20.3,9.5c-1.2,0.6-2.8,0.8-3.7,1.2   c-3,1.4-7.5,5.1-13.7,10.8c-0.2,0.2-0.4,0.5-0.4,0.8c-2.8,16.5-5.7,33-8.7,49.4c-0.4,1.9,0.5,3.3-0.1,5.4   c-2.4,8.3-3.8,14.2-4.4,17.6c-0.5,2.5,0.4,6.3,0.2,9.2c-0.5,7.3-0.4,14.6-1.9,21.8c-0.9,4.2-0.8,8.6,0.2,13.3   c3.9,17.5,7.6,32.1,11.2,44.1c3.4,11.3,8.4,22.5,14.9,33.5c2.3,4,4.8,7.4,7.2,10.1c0.8,0.9,1,1.6,1.3,2.8c0.1,0.4,0.3,0.6,0.7,0.6   c20.1,3.1,43.2-1.3,61.7-8.2c15-5.5,30.6-10.9,44.9-17.6c25-11.8,50.7-25.4,73.1-41.7c0.6-0.4,0.7-1.2,0.4-1.8   c-7.1-12.1-13.8-23-18.1-36.4c-0.1-0.3-0.4-0.4-0.6-0.3c0,0-0.1,0-0.1,0.1c-10.5,6.5-21,13-31.6,19.4   c-13.7,8.3-23.3,13.8-28.9,16.4c-4.8,2.3-9.2,5.2-13.2,7c-4.7,2.1-9.4,4.2-14,6.3c-2.5,1.1-3.7,3.7-7.2,2.4c-0.3-0.1-0.7-0.1-1,0   c-8.7,2.7-17.4,5.6-27.2,7.4c-8.3,1.5-16.6,3-25,4.3c-3.7,0.6-7.4,0.7-11.1,0.3c-2.2-0.2-3.4-1.4-3.6-3.7l-0.1-0.8   c-0.1-1.3,0.9-2.4,2.1-2.5c0.1,0,0.2,0,0.3,0c9.6,0.5,18-1.7,27.3-2.9c1.1-0.2,1.1-0.4,0.1-0.8c-12.6-4.7-22.6-15.4-28.2-27.5   c-3.2-7-3.2-14.1,0-21.3c1.1-2.5,1.4-4.5,4.9-3.3c6.4,2.2,13.5,3,19.8,4.4c1.5,0.3,1.6,0.1,0.3-0.7c-1.9-1.2-5.5-1.6-6.4-4.1   c-3.2-8.8-7-17.9-11.3-27.3c-1.8-3.8-7.5-9.5-1.8-12.7" class="st4" vector-effect="non-scaling-stroke"/><path data-cppathid="10019" d="M636.5,667.6c2.7-0.6,4.5-1.7,5.2-3.2c0.1-0.2,0.4-2,0.7-5.2   c0.8-6.8,0.1-13.5-2.1-20c-1.4-4.1-0.8-8.6-2.6-12.2c-3-6.3-9.6-8.8-14.9-3.2c-0.9,1-1.9,1.8-2.9,2.5" class="st5" vector-effect="non-scaling-stroke"/><path data-cppathid="10020" d="M624.5,650.5c-0.1,1.7,0.4,3.2,1.4,4.6" class="st5" vector-effect="non-scaling-stroke"/><path data-cppathid="10021" d="M518.9,681c3.4-1.2,5.4-3.1,6.1-5.8c0.6-2.2,0.8-4.5,0.6-6.8   c-0.3-3.5-3.4-9.9-3-13.3c0.6-4.4,0.7-8.6,0.4-12.5c-0.6-7.9-6-19.4-16.1-16.2c-5.5,1.7-8.1,7.5-9.9,12.5" class="st5" vector-effect="non-scaling-stroke"/><path data-cppathid="10022" d="M662.1,675.8l-1.2,1c-0.3,0.2-0.4,0.5-0.3,0.8   c4.9,14.2,11.7,24.3,18.8,36.1c0.2,0.3,0.4,0.4,0.7,0.2c7.9-4.8,16.3-7.6,22.6-14.5c1.5-1.6,1.5-4,2.6-5.2c2.4-2.8,3.8-5.5,4.3-7.9   c1.5-8.2,1.8-19.3-1.6-27.1c-0.5-1.3-0.9-1.2-1.1,0.2c-0.4,2.6-1.6,5.7-4.8,5.7c-5.9-0.1-3.6-10-2.4-13.2c0.9-2.4,1.3-4.2,1.1-5.2   c-0.2-2-1.1-3.8-2.7-5.4c-0.3-0.3-0.7-0.4-1.1-0.2l-4.3,2c-0.3,0.1-0.5,0.5-0.4,0.8c1.1,3.8-0.8,8.5-5.5,5.9   c-0.3-0.2-0.5-0.1-0.8,0.2c-3.4,4.8-5.8,10.6-8.6,15.1c-1.5,2.4-5.1,3.8-7.3,1.5c-1.4-1.4-2-3.6-2.7-5.3c-0.5-1.2-0.9-1.2-1.3,0.1   c-0.9,3-2,6.2-3.2,9.5c-0.5,1.4-0.2,2.7-0.4,4.2C662.6,675.3,662.4,675.6,662.1,675.8" class="st1" vector-effect="non-scaling-stroke"/><path data-cppathid="10023" d="M528.5,695.5c-10.4-4.4-20-6-30.3-8.1c-0.4-0.1-0.9,0.2-1,0.6   c-1.3,4.8-0.8,9.6,1.6,14.1c7.3,14.1,18.8,22.6,34.6,25.3c6.7,1.2,14.3-2.3,20.5-4.7c0.1-0.1,0.2-0.2,0.2-0.4c0,0,0,0,0,0   c-2.5-5.4-6.1-16.2-10.5-19.4C540.6,701.1,535.6,698.5,528.5,695.5" class="st1" vector-effect="non-scaling-stroke"/><path data-cppathid="10024" d="M630.5,751.5c-2.8,1.5-5.5,2.8-8.2,4c-0.2,0.1-0.3,0.3-0.2,0.5   c0.1,0.1,0.2,0.2,0.3,0.2c18.6,1.9,36.7,0.7,55.3-1c1.7-0.2,3.3-0.4,4.8-0.7c0.7-0.1,1.4-0.7,1.6-1.4c4.6-11.8,8.3-23.1,8.8-36.6   c0-0.3-0.1-0.5-0.5-0.4c-4.1,1.4-8.3,4.3-12,6.6c-2,1.2-3.7,0.3-5.8,1.8C660.5,734.5,645.8,743.4,630.5,751.5" class="st4" vector-effect="non-scaling-stroke"/><path data-cppathid="10025" d="M604.7,764.7c-13.9,7.1-29.5,12.3-44.3,17.7c-22.8,8.4-46.8,13.3-71.1,9.2   c-2-0.3-3.1-1.4-3.5-3.2c-0.1-0.3-0.2-0.6-0.5-0.8c-3.2-2.6-5.8-5.8-7.7-9.5c-0.3-0.5-0.9-0.9-1.5-0.8c-3.6,0.4-7.7-3.6-9.9-5.9   c-0.4-0.4-0.5-0.3-0.5,0.2c0.4,28.4-1.5,56.9-4.9,85.1c-1.2,9.8-2,17.9-2.6,24.2c-2.6,32.3-6.9,62.9-10.9,94.3   c-2.7,21.4-3.7,42.9-3.7,64.4c0,0.3,0.3,0.6,0.6,0.6c0,0,0.1,0,0.1,0c5.9-0.9,10.8-0.8,17.3-0.2c14.7,1.5,29.3,2.3,44.1,2.5   c11.6,0.2,24,1.4,33.4,2c13.3,0.9,26.4,1.1,40.5,0.3c28.4-1.6,56.7-3.9,85-6.7c8.9-0.9,16-1.7,22.4-4c0.7-0.2,1.1-0.9,1-1.6   c-2.5-23.5-5.1-46.4-6.5-69.6c-1.5-23.7-6.1-47.1-11.1-71.2c-2.7-12.7-4.7-27.4-7.8-40.7c-5-21.4-8.3-37.3-9.9-47.5   c-2-12.8-4.1-25.3-6.6-38c-0.1-0.3-0.3-0.5-0.7-0.6c-10.7-0.5-21.4-1.2-32-2.1C610.5,762.5,607.6,763.2,604.7,764.7" class="st4" vector-effect="non-scaling-stroke"/><path data-cppathid="10026" d="M609.3,1138.1c10.1-4.3,18.9-6.5,30-5.2c0.2,0,0.3-0.1,0.3-0.3   c1.7-16.4,2.3-32.2,1.3-49.3c-0.6-11.4-1.2-22.9-1.8-34.4c0-0.4-0.2-0.6-0.6-0.5l-40.3,3.2c-0.3,0-0.4,0.2-0.4,0.5   c5.1,28.5,9.9,56.6,10.9,85.6C608.8,1138.1,608.9,1138.2,609.3,1138.1" class="st1" vector-effect="non-scaling-stroke"/><path data-cppathid="10027" d="M554.6,1053.3l-45.1-3c-0.4,0-0.5,0.2-0.5,0.5c1.6,16.6,2.5,33.2,2.7,49.8   c0.1,11.9-0.5,26.3-0.7,39.5c0,0.4,0.2,0.5,0.5,0.3c13.7-5.2,26.5-2.4,39.2,3.9c0.2,0.1,0.4,0,0.4-0.2c0,0,0-0.1,0-0.1   c0.2-6.4,0.4-12.9,0.6-19.4c0.4-12.9,1.5-25.9,2.4-38.8c0.8-11,0.7-21.5,0.7-32.3C554.8,1053.4,554.7,1053.3,554.6,1053.3" class="st1" vector-effect="non-scaling-stroke"/><path data-cppathid="10028" d="M529.3,402.3c3.6-0.2,6.3-3.8,6-7.9s-3.4-7.4-6.9-7.2h0   c-3.6,0.2-6.3,3.8-6,7.9C522.6,399.3,525.7,402.5,529.3,402.3C529.3,402.3,529.3,402.3,529.3,402.3" class="st2" vector-effect="non-scaling-stroke"/><path data-cppathid="10029" d="M443.9,398c7.4-1.2,3.6,7.1,9.1,6.5c3.6-0.3,3.5-5.1,2.5-7.4   c-3.2-7.9-15.9-8.4-20.4-1.5c-7.1,10.8,0.9,24.3,12.4,27.6c2.6,0.7,5,0.4,7.3-1c2.3-1.4,3.3-4.1,1.1-6.1c-1.9-1.7-5,0-7.2-0.6   c-6-1.6-9.8-8-8.4-14C440.6,399.9,442,398.3,443.9,398" class="st1" vector-effect="non-scaling-stroke"/><path data-cppathid="10030" d="M585.3,451.1c1.5,1.4,4.7,0.5,7.2-2c2.5-2.6,3.3-5.8,1.8-7.3c0,0,0,0,0,0   c-1.5-1.4-4.7-0.5-7.2,2C584.6,446.4,583.8,449.6,585.3,451.1C585.3,451.1,585.3,451.1,585.3,451.1" class="st1" vector-effect="non-scaling-stroke"/><path data-cppathid="10031" d="M553.4,474.5c13.3,8.3,27.3,6.6,41.1,0.6c2.1-0.9,3.4-2,3.7-3.2   c1-3.5-2.3-5.6-5.2-4.4c-12.6,5.3-23.5,8.4-36.2,0.8c-1.2-0.7-3.3-2.1-6.4-4.2c-2-1.4-3.8-1.2-5.4,0.5l-0.6,0.6   c-0.9,1-0.9,2.5,0,3.4c0.1,0.1,0.2,0.2,0.3,0.3C547.7,470.9,550.5,472.7,553.4,474.5" class="st1" vector-effect="non-scaling-stroke"/><path data-cppathid="10032" d="M642.7,391.6l-6,3.3c-1.5,0.9-2.1,2.8-1.2,4.3c0,0,0,0,0,0l1.7,3   c1.9,3.4,5.8,4.8,8.8,3.1l0.7-0.4c3-1.7,3.9-5.8,2-9.1c0,0,0,0,0,0l-1.7-3C646.1,391.3,644.2,390.7,642.7,391.6" class="st2" vector-effect="non-scaling-stroke"/></g><path data-cppathid="10033" d="M646.1,1160.2c14.8,0.9,28,2.6,39.4,5c8.7,1.8,17.8,6.5,18.4,16.2c0.9,12.9-7.8,14-17.9,15c-5.4,0.5-10.8,2.3-16.1,3.6  c-6.7,1.6-19,4.1-36.8,7.7c-6.9,1.4-13.2,0.4-18.9-3c-2.1-1.3-4-1.4-6.2-2.3c-0.3-0.1-0.7,0-0.8,0.3c0,0.1,0,0.2,0,0.2  c-0.1,10.8-9.5,18-19.5,20.2c-8.7,1.9-17.8,3.9-26.5,4c-13.9,0-27.3-2.2-40.1-6.7c-16.3-5.7-22.2-15.9-18.1-33.3  c0.5-2.2,0.7-4.4,0.7-6.5c-0.6-17.1-0.6-34.2-0.1-51.3c0.8-26.1,0.6-51.9-1.4-78c-0.1-0.8-0.7-1.4-1.5-1.4  c-12.3-0.1-24.5-0.8-36.7-2c-8.1-0.8-13.9-0.8-21.3,0.2c-5.1,0.7-6.1-2.7-6.2-7c-0.4-22.4,0.4-42.2,2.5-59.3  c2.6-20.6,5.1-41.1,7.7-61.7c3.1-24.4,4.7-48.9,7.5-73.3c3.2-27.6,4.9-51.8,4.6-77.5c0-0.3-0.1-0.6-0.3-0.9c-1-1.6-1.2-3.2-0.5-5  c0.1-0.4,0.1-0.7-0.2-0.9c-20.7-24.5-37.2-50.6-47.5-81.1c-5-15-7.4-31.7-9.1-47.5c-3.4-32-5.6-64-10-95.9  c-1.4-10.4-2.6-25.4-4.6-38.7c-0.5-3.5-1.8-6.4-3.9-8.7c-0.8-0.9-1.4-2.6-1.9-5.1c-4.7-26.3-9.1-53.3-10-80  c-0.3-8.6,0.5-21.5,2.2-38.5c2.2-21.3,8.1-42.6,17.6-63.9c7.5-16.9,17.2-32.1,28.9-46.6c12.8-15.8,30.3-29.1,47.3-38.7  c20.9-11.9,47.3-17.5,71.4-19c30.5-1.8,61.7,5.9,88.3,20.3c9.7,5.2,18.4,13.1,27.5,19.9c6.7,5,11.3,8.7,13.8,11.1  c18.3,17.4,30.5,42.3,32.6,67.1c1.1,13.5,3.4,27.3,2.8,40.8c-0.2,3.2-2.6,3.4-3.6,6c-1.7,4.5-3.9,8.6-6.5,12.4  c-0.3,0.4-0.4,0.8-0.3,1.2c1.7,24.8-1,49.2-8,73.1c-1.3,4.6-3.9,10.5-7.6,17.7c-4.1,7.8-8.5,14.5-13.3,19.9  c-0.2,0.2-0.3,0.5-0.2,0.8c0.7,2.6,0.9,5.4,0.5,8.4c-2.5,19.4,4,43.3,8.9,64.2c1.3,5.6,3.9,19.2,1.4,24.3c-0.2,0.3-0.4,0.5-0.8,0.6  c-0.4,0.1-0.8,0.3-1.1,0.7c-0.2,0.3-0.2,0.6,0,0.9c2,2.9,3.7,6,5.2,9.2c5.4,11.9,9.7,24.2,12.8,37c0.1,0.3,0.3,0.4,0.6,0.4  c0,0,0.1,0,0.1-0.1c1.3-0.7,2.7-1.3,4.3-1.8c6.6-1.8,11.8,5.2,12.7,10.7c0.4,2.1,0,2.7,1.6,4.3c3.3,3.3,5.5,7,6.6,11.2  c5.1,20.3,1.8,39.9-16.4,52.3c-0.3,0.2-0.4,0.5-0.3,0.8c0.8,2.5,1,5,0.7,7.7c-1.6,13.8-5.5,26.9-11.7,39.3c-1,2-2.2,2.7-4.4,2.9  c-9.9,0.9-19.9,1.6-29.8,2.2c-0.3,0-0.4,0.2-0.4,0.5c1,5.4,2.9,17,5.8,34.6c2,12.4,5.3,28.3,9.9,47.7c3.1,13.1,4.9,25.9,7.5,38.8  c5.4,26.7,10.3,51.1,12,77.4c1.3,19.9,2.9,39.7,4.9,59.5c0.2,2.1,0.5,7.1,0.8,15c0.1,2.5-0.6,5-3.5,4.8c-1.7-0.1-2.2-1.8-4.3-1  c-3.1,1.2-6.5,2-10.4,2.5c-10.1,1.2-20.1,2.2-30.1,3.1c-0.4,0-0.7,0.4-0.7,0.8c0.6,12.1,1.3,24.2,2.1,36.1c1,15.2,0.6,31.5-1.1,49.1  c-0.2,1.9,1.9,2.4,2.6,3.7c1.8,3.3-0.9,4.5-3.1,6.1c-0.3,0.2-0.5,0.5-0.5,0.9l-0.8,15.4C645.5,1160,645.7,1160.2,646.1,1160.2z   M686.1,353.4c0.4,2.4,1.8,8.3,4.5,9.2c4,1.4,5.5-5.9,5.9-9.1c1.1-9,1-18-0.5-27c-0.8-5-4.7-11.8-6.4-19.7c-0.1-0.3-0.1-0.6,0-1  c0.4-1.2,0.3-2.8-0.3-4.7c-4.9-17.1-13.3-31.5-25-43.3c-2.9-2.9-8.1-7.1-15.4-12.7c-9.9-7.4-18.5-15.1-29.9-20.9  c-38.8-19.6-79.9-22.3-121.5-10.4c-11.3,3.2-21.9,7.9-31.9,14.1c-14.1,8.7-27.7,18.9-38.4,31.8c-27.9,33.5-43.7,73.8-47.4,117.3  c-0.9,11.3-1.7,25.1-1,36.3c0.9,15.5,3.2,33.2,6.7,53c0.4,2.1,1.7,4.4,2.1,6.7c1.6,8.7,4,16.5,5.8,24c3.3,13.8,3.8,28.7,5.9,42.9  c1.5,10.3,2.7,21.4,3.7,33.1c1.5,18,3.5,38.8,6.1,62.3c1.4,13.1,3.1,23.4,4.9,31c8.7,36.3,29.6,68.5,54.3,96.9  c0.1,0.2,0.4,0.2,0.5,0c0.1-0.1,0.1-0.1,0.1-0.2c0-0.4-0.1-0.8-0.3-1.2c-2.8-5.8-5.3-11.6-7.4-17.9c-8.8-26.5-13.3-49.7-11.6-75.8  c1.8-28.9,6.1-49,12.2-83.8c2.5-14.2,4-24.5,4.5-31c1.5-18.9,0.3-38.1-1.1-57c-0.6-8.5-1.7-17-3.1-25.4c-0.5-2.6-1.3-5.2-2.5-7.7  c-3.9-8.4-7.3-16.1-9.8-25.3c-0.1-0.4-0.5-0.6-0.9-0.5c0,0,0,0,0,0c-6.4,2.1-14-1-18.9-4.9c-11.9-9.4-15.4-24-13.7-39.1  c1.8-15.8,13.8-28.6,30.7-21.6c2.1,0.9,4.2,2.6,6.5,5.1c0.1,0.1,0.3,0.1,0.4,0c0,0,0.1-0.1,0.1-0.1c1.4-5.2,3.2-10.3,5.4-15.3  c0.9-2.1,0.3-4.2,1.4-6.4c7.1-15.5,10.2-31.2,9.2-47.2c-0.2-2.6-3.9-8.1,1.8-8.8c3.5-0.4,4.8,2.5,5,5.5c1.1,17-0.4,33.7-7.1,48.9  c-0.2,0.5-0.3,1-0.3,1.4c0,0.3,0.2,0.5,0.5,0.5c0,0,0,0,0.1,0c12.9-2,26.3-8.4,30.8-21.5c2.2-6.6,4.2-14.4,5.8-23.5  c0.6-3.1,3.7-6,6.5-3.6c5.2,4.4-2.2,38.8-4.1,45.7c-0.1,0.3,0.1,0.7,0.4,0.8c0.1,0,0.1,0,0.2,0c22.3-1.4,51.4-12.1,62.3-33  c4.7-9,5.3-19.3,5.1-29.3c0-1.7,0.2-2.8,0.5-3.5c1.4-2.5,5.3-2.5,6.7-0.1c1.2,2,2.1,4.6,2.7,7.8c2.9,15.9,2.6,32.1-0.8,48.7  c-0.2,0.9,0.1,1.1,0.8,0.5c14.2-10.9,17.5-25,20.3-42c0.3-1.7,0.7-3,1.2-3.7c2.3-3.2,6.2-1.3,7,2c4.3,17.9,0.5,33.9-6.1,50.6  c-0.1,0.3,0,0.7,0.4,0.9c0.1,0,0.2,0.1,0.3,0.1c11.6,0,23.5-0.4,35.2,0.7c6.3,0.5,15.3,0.1,17.5-7.3c2.8-9.7,3.5-19.5,2.2-29.5  c-0.4-3.3-2.7-10.9,1.1-12.6c6-2.6,6.2,7,7.2,9.8C678.1,326.4,683.7,339.1,686.1,353.4z M601.8,349.5c2-4.9,3.7-9.9,5.1-15  c0.1-0.4-0.1-0.6-0.5-0.7c-0.1,0-0.2,0.1-0.4,0.5c-4.5,7.8-12.9,17.4-21.8,20c-4.8,1.4-7.8-2.2-6.7-6.7c1.7-7,2.9-14.2,3.5-21.4  c0.2-2.1,0.2-4,0.1-5.7c-0.1-0.8-0.3-0.9-0.6-0.1c-11.8,26.9-47.2,40.1-74.4,40.4c-9.8,0.1-4.9-8-4-12.7c0.1-0.6,0-0.7-0.5-0.2  c-9,9.7-21.8,14.6-34.8,15.5c-0.3,0-0.5,0.2-0.7,0.5c-2.9,6.6-5.1,13.5-6.5,20.6c-0.1,0.3,0.1,0.6,0.4,0.7  c9.7,2.3,19.4,3.7,29.4,4.3c0.3,0,0.6-0.2,0.6-0.5c0.9-8.7,3.5-22,15.1-21.6c9.3,0.4,18.5,0.2,27.8-0.4c4.6-0.3,9.1,0,13.6,0.9  c2.1,0.5,4.1,0.7,5.9,0.6c9.4-0.3,14,0.2,15,10.9c0.4,4.2,0.6,8.3,0.8,12.5c0,0.3,0.1,0.3,0.3,0.1c2.2-3,5-1.2,7.5-1  c8.6,0.6,17.1,0.9,25.7,0.7c0.9,0,1.7,0.3,2.6,0.4c0.3,0.1,0.5-0.1,0.5-0.4c0.1-3.3,0.2-6.6,0.3-10c0.1-3.2,1.8-5.2,4.9-6  c16.1-4,32.3-5.6,48.6-4.9c3.3,0.1,5.7,0.6,7.1,1.2c6.5,3.2,8,15.7,8.2,22c0,0.4,0.3,0.6,0.7,0.6c2.9,0,8.1-0.6,10.5,1.1  c0.1,0.1,0.3,0.1,0.4-0.1c0,0,0.1-0.1,0-0.2c-0.1-10.4-0.7-20.8-1.9-31.2c0-0.3-0.2-0.4-0.5-0.3c-3.8,1-5.8-0.3-6-4.1  c-0.3-8.9-1.4-17.2-3.2-25c-0.8-3.4-1.3-3.4-1.4,0.1c-0.2,4.1-1.2,8.8-3.1,14.1c-3.8,10.5-13.6,11.9-23.4,11.4  c-13.4-0.7-26.8-0.1-40.1-1C599.8,358.9,599.9,354.2,601.8,349.5z M500.7,377.9c-3.4,9.4-4.3,20.5-4.4,30.3c0,3.6,5.8,4.8,8.7,5.5  c16.4,4,32,4.6,50.5,4.8c1.1,0,2.3-0.5,3.8-1.6c0.2-0.2,0.4-0.4,0.5-0.7c1.9-11.6,1.3-24.3,0.3-36.6c-0.1-1.4-0.3-2.5-0.7-3.5  c-0.1-0.3-0.4-0.5-0.8-0.5c-4.8-0.1-13.8,1-16.5-1.1c-0.3-0.2-0.6-0.3-0.9-0.3c-2.8-0.2-5-0.3-6.4-0.2c-9.8,0.7-19.6,1-29.5,0.8  C502.6,374.7,501.5,375.6,500.7,377.9z M673,414.4c4.3,2.2,2.4,6.9-2,7.4c-9.7,1.1-20,2.7-29,2.8c-8.1,0.1-16.1-0.4-24.2-1.5  c-15.3-2-13.9-12.6-13.2-24.6c0-0.4-0.2-0.6-0.6-0.5c-1.1,0.3-2.2,0.7-3.3,0.7c-9.2,0.2-18.4-0.2-27.6-1.2c-2.4-0.3-3.3-0.9-4.5-2.8  c-0.2-0.3-0.3-0.3-0.3,0.1c0.1,5.6,0,11.4-0.4,17.2c-0.2,3.8-0.1,7.5-3.8,8.4c-0.3,0.1-0.6,0.3-0.7,0.6c-1,1.8-1,3.3-3.1,4.4  c-2,1-4.8,0.8-7.2,0.8c-15.8-0.1-31.6-0.9-47.1-4.1c-3.7-0.8-7.2-1.9-10.6-3.4c-9.5-4.1-6.7-13.6-6.3-21c0-0.4-0.2-0.6-0.5-0.6  c-12.6-1.5-19.5-2.3-29.4-4.8c-2.7-0.7-5.2,0.6-7.3-2.2c-0.2-0.3-0.5-0.4-0.8-0.5c-2.8-0.4-5.7-1.7-3.5-5.2c0.3-0.5,0.6-1,1-1.6  c0.2-0.3,0.2-0.5,0-0.8c-4.9-6.4-14.1-6.6-19.3-0.4c-7.1,8.4-6.4,21.9-3.4,31.9c2.3,7.6,7.5,13,15.5,16.2c6,2.4,8.9-3.6,14.3,1.5  c0.7,0.6,1,1.2,1,1.7c0.4,7.4,4.7,16.8,7.9,23.1c1.3,2.5,3.5,6.6,6.6,12.1c16,28.8,47.9,45.8,79.5,50.5c11.8,1.8,23.7,2.6,35.7,2.5  c15.5-0.1,33.5-5.3,46.2-15.3c15-11.9,28.6-22,37.8-40.2c9.8-19.6,14.2-41.5,15-64.1c0-0.3-0.1-0.4-0.4-0.3  c-3.1,1.1-6.4,0.8-9.6,0.5c-0.4,0-0.6,0.1-0.6,0.5c0.2,4,0.6,8.3-1.8,11.8C672.7,414.1,672.7,414.3,673,414.4z M665.8,411.9  c2.2-6.3,0.5-10.6,0.6-16.8c0-5.3-1-10.5-3.1-15.5c-0.1-0.3-0.4-0.6-0.7-0.7c-1.4-0.5-2.8-0.8-4.2-0.8c-15.4-0.7-30.5,0.6-45.5,4  c-0.1,0-0.3,0.2-0.3,0.3c-0.7,8.2-1.1,16.4-1.1,24.7c0,2.8,0.3,4.7,0.9,5.7c1.8,2.7,8.6,3.5,11.6,3.6c8.8,0.4,17.5,0.9,26.3,0  c5.2-0.5,10.4-1.1,15.6-1.8c0.3,0,0.5-0.2,0.3-0.5l-0.5-1.2C665.6,412.5,665.6,412.2,665.8,411.9z M473,562.1  c-0.1,0.9-0.2,1.9-0.2,2.8c0,0.2,0.2,0.3,0.3,0.3c0.1,0,0.1,0,0.2-0.1l5-3.8c0.2-0.2,0.4-0.4,0.4-0.7c0.6-3.3,1.9-8.5,3.9-15.7  c3.1-11,4.5-23.3,4.1-36.7c-0.1-2.7-0.6-5.3-1.6-7.9c-0.7-1.8,0.1-2.9-1.6-4.4c-4.3-4-8.2-8.2-11.6-12.6c-0.7-0.9-0.9-0.8-0.8,0.3  c2.8,20.1,3.9,40.5,3.3,61.3C474.4,550.7,473.9,556.4,473,562.1z M654.7,497.5c-4.6,1.4-8.3,5.4-11.1,8.3c-1.8,1.8-1.9,3.9-0.5,6  c0.2,0.3,0.2,0.6,0.2,0.9c-0.4,6.6,1.7,13.3,3.9,19.4c1,2.8,3.2,4,4,6.9c2.3,8.2,4.8,16.3,7.6,24.3c0.1,0.3,0.1,0.7-0.1,1l-0.9,1.4  c-0.2,0.3-0.3,0.5-0.3,0.8c0.1,4.7,3.7,9.8,6.4,13.4c1.6,2.2,4.5,3.1,6.1,0.4c1.4-2.3-0.7-5.9-2-8.1c-0.7-1.2-1.3-2.5-1.5-3.8  c-1.9-9-4-18.1-6.2-27c-0.9-3.8-1.6-9.1-1.4-14c0.4-7.4-0.2-14.8-1.7-22.1c-0.1-0.3-0.1-0.7,0-1c0.8-2.4,0.6-4.7-0.5-6.9  c0.3-0.3,0.4-0.5,0.2-0.6C655.9,496.3,655.2,496.5,654.7,497.5z M489,550.3c-0.4,1.5-0.9,3.2-1.3,4.9c-0.1,0.3,0.1,0.6,0.4,0.7  c0.1,0,0.2,0,0.3,0c6.4-2.3,12.7-5.2,18.8-8.6c5.4-3,1.7-28.6,0.7-34.5c-0.6-3.5-2.4-4.9-5.6-4.4c-2.9,0.5-6-2.5-8.4-4.1  c-0.3-0.2-0.5-0.1-0.4,0.3C494.8,520.1,493.3,535.4,489,550.3z M651.8,566.5c-5.6-17.6-10.6-35.3-15.3-53.3  c-0.1-0.3-0.4-0.5-0.7-0.4c-0.1,0-0.1,0-0.2,0.1c-5.8,4.4-12.2,7.6-19.2,9.8c-0.2,0.1-0.4,0.3-0.3,0.5c0,0.1,0.1,0.2,0.2,0.2  c1.5,1,2,2.2,2.2,4c1.4,9.3,4.1,18.3,8,27c0.1,0.3,0.4,0.6,0.7,0.7c6.5,3.9,13.4,6.8,20.5,9.4c1.4,0.5,2.4,1.4,3.5,2.3  c0.1,0.1,0.3,0.1,0.4-0.1C651.8,566.7,651.8,566.6,651.8,566.5z M515.8,517.4c-0.9,2.2-1.9,3.8-1.5,6.2c0.7,4.5,1.1,9.1,1.4,13.6  c0.2,2.9,1.5,7.4,5.3,5.2c2.6-1.5,5.4-2.8,6.8-5.5c3.7-7.1,1.4-13.2-4.5-18c-2-1.6-4.4-1.3-6.8-1.9  C516.2,517,515.9,517.1,515.8,517.4z M569.8,544.2c-3.2-2.9-1.6-5-1.8-8.3c-0.1-2.2-0.5-4.4-1.1-6.5c-0.2-0.9-1-1.5-1.9-1.6  c-10.1-0.7-20.1-2.1-30-4.4c-0.3-0.1-0.4,0-0.4,0.4l1.7,12.3c0.2,1.1-0.3,2-1.2,2.6l-17.4,10.6c-0.4,0.2-0.5,0.7-0.3,1.1  c0,0.1,0.1,0.1,0.1,0.1c6.3,6.4,15.2,11.4,23.5,14.3c19.5,6.7,39.6,3.2,55.7-9.9c0.1-0.1,0.2-0.3,0.1-0.4c-1.2-2.1-2.4-3.7-4.9-4.4  c-5.4-1.5-10.7-3.1-16-4.9c-0.3-0.1-0.6-0.1-0.9,0C572.9,545.7,571.5,545.7,569.8,544.2z M595.9,528.3c0.1,4.9,1.2,10.2,2.9,14.8  c0.2,0.6,0.6,1,1.1,1.4c3.4,2.2,7.1,3.7,10.9,4.6c1.7,0.4,2.8,2.3,4.6,2.5c3.1,0.4,4.2-3.7,2.9-6c-1-1.7-3.5-2.1-3.9-4.9  c-0.2-1.4-0.5-2.4-0.7-2.9c-1.7-4-2.4-8.1-2.1-12.4c0-0.3-0.2-0.6-0.6-0.7c-0.1,0-0.2,0-0.2,0c-4.8,1.7-9.6,2.8-14.7,3.3  C596,528.2,595.9,528.2,595.9,528.3z M574.3,529.8l1.1,7.3c0.1,0.4,0.3,0.6,0.7,0.8l13.6,4.1c0.4,0.1,0.9-0.1,1-0.5  c0-0.1,0-0.3,0-0.4c-0.8-3.3-2.2-7.9-1.7-11.5c0-0.4-0.2-0.7-0.6-0.7c0,0-0.1,0-0.1,0l-13.1-0.2c-0.5,0-1,0.4-1,1  C574.3,529.6,574.3,529.7,574.3,529.8z M497.2,639c0.1,1.9,0.4,3.4,0.8,4.7c0.1,0.3,0.4,0.6,0.7,0.7c7.5,3.7,11,13.6,13,21.3  c0.9,3.7,3.5,6.1,2.9,10.4c-0.1,1.1,0.4,2.3,1.3,2.9l3,2c0.6,1.2,1,2.2,1.1,3.1c0,0.3,0.2,0.6,0.6,0.7c8.4,2.2,13.6,5,20.5,8  c2.6,1.1,5.1,2.5,7.5,4.1c2.6,1.8,5.3,3.4,8.1,5.1c4.1,2.4,7.8,5.3,11.7,8c2.5,1.7,5.2,1.8,7.9,3c0.6,0.3,1.3,0.3,1.8,0  c18.3-8.5,35.8-18.9,52.9-29.6c0.3-0.2,0.4-0.5,0.4-0.8c-1-9.3-2.8-18.4-5.5-27.4c-0.2-1.7-0.7-3.2-1.4-4.6  c-1.8-5.8-3.8-11.5-6.1-17.1c-1.1-2.7-2.1-6.1,1.5-7.1c0.1-0.2,0.3-0.2,0.6,0c0.3,0.2,0.4,0.5,0.3,0.8c-0.4,3.5,1.3,3.7,3.9,4.4  c0.3,0.1,0.5,0.3,0.5,0.6c0,3.3,2,5.9,2.8,8.3c0.6,1.6,1.2,3.2,1.9,4.7c1,2.1,0.4,4.6,1,6.9c1.5,5.4,3.3,10.6,5.6,15.6l2,10.4  c0.1,0.3,0.3,0.4,0.6,0.4c0.1,0,0.1,0,0.2-0.1c4.7-3,10.1-7,15.5-8.4c0.8-0.2,1.4-0.8,1.6-1.5c1.5-4.7,3.7-16.6,9.7-17.5  c3.8-0.6,5.5,2.5,7.3,5.3c0.3,0.4,0.5,0.4,0.7,0c2.4-5.6,5.5-10.7,9.5-15.3c0.3-0.3,0.3-0.7,0.3-1c-3.2-14.2-7.8-27.8-13.7-41  c-1.4-3.1-4.7-6.7-6.4-9.2c-5.3-7.5-9.6-13.8-18.4-17.5c-5.5-2.4-9.4-4.2-14.2-6.3c-0.6-0.2-1.1-0.2-1.5,0.2  c-4.1,3.2-7.2-5-10.2-6.6c-2.4-1.3-8.4-4.6-11.9-4.1c-0.3,0.1-0.6,0.2-0.8,0.5c-2.4,3.1-5.7,6.1-10,9c-12.5,8.2-25.8,11.9-39.9,10.9  c-16.7-1.2-32.8-8.9-44.8-20.6c-0.7-0.7-1.7-0.8-2.6-0.3c-6.6,3.7-13.5,6.2-20.3,9.5c-1.2,0.6-2.8,0.8-3.7,1.2  c-3,1.4-7.5,5.1-13.7,10.8c-0.2,0.2-0.4,0.5-0.4,0.8c-2.8,16.5-5.7,33-8.7,49.4c-0.4,1.9,0.5,3.3-0.1,5.4  c-2.4,8.3-3.8,14.2-4.4,17.6c-0.5,2.5,0.4,6.3,0.2,9.2c-0.5,7.3-0.4,14.6-1.9,21.8c-0.9,4.2-0.8,8.6,0.2,13.3  c3.9,17.5,7.6,32.1,11.2,44.1c3.4,11.3,8.4,22.5,14.9,33.5c2.3,4,4.8,7.4,7.2,10.1c0.8,0.9,1,1.6,1.3,2.8c0.1,0.4,0.3,0.6,0.7,0.6  c20.1,3.1,43.2-1.3,61.7-8.2c15-5.5,30.6-10.9,44.9-17.6c25-11.8,50.7-25.4,73.1-41.7c0.6-0.4,0.7-1.2,0.4-1.8  c-7.1-12.1-13.8-23-18.1-36.4c-0.1-0.3-0.4-0.4-0.6-0.3c0,0-0.1,0-0.1,0.1c-10.5,6.5-21,13-31.6,19.4c-13.7,8.3-23.3,13.8-28.9,16.4  c-4.8,2.3-9.2,5.2-13.2,7c-4.7,2.1-9.4,4.2-14,6.3c-2.5,1.1-3.7,3.7-7.2,2.4c-0.3-0.1-0.7-0.1-1,0c-8.7,2.7-17.4,5.6-27.2,7.4  c-8.3,1.5-16.6,3-25,4.3c-3.7,0.6-7.4,0.7-11.1,0.3c-2.2-0.2-3.4-1.4-3.6-3.7l-0.1-0.8c-0.1-1.3,0.9-2.4,2.1-2.5c0.1,0,0.2,0,0.3,0  c9.6,0.5,18-1.7,27.3-2.9c1.1-0.2,1.1-0.4,0.1-0.8c-12.6-4.7-22.6-15.4-28.2-27.5c-3.2-7-3.2-14.1,0-21.3c1.1-2.5,1.4-4.5,4.9-3.3  c6.4,2.2,13.5,3,19.8,4.4c1.5,0.3,1.6,0.1,0.3-0.7c-1.9-1.2-5.5-1.6-6.4-4.1c-3.2-8.8-7-17.9-11.3-27.3  C497.3,647.9,491.5,642.3,497.2,639z M662.1,675.8l-1.2,1c-0.3,0.2-0.4,0.5-0.3,0.8c4.9,14.2,11.7,24.3,18.8,36.1  c0.2,0.3,0.4,0.4,0.7,0.2c7.9-4.8,16.3-7.6,22.6-14.5c1.5-1.6,1.5-4,2.6-5.2c2.4-2.8,3.8-5.5,4.3-7.9c1.5-8.2,1.8-19.3-1.6-27.1  c-0.5-1.3-0.9-1.2-1.1,0.2c-0.4,2.6-1.6,5.7-4.8,5.7c-5.9-0.1-3.6-10-2.4-13.2c0.9-2.4,1.3-4.2,1.1-5.2c-0.2-2-1.1-3.8-2.7-5.4  c-0.3-0.3-0.7-0.4-1.1-0.2l-4.3,2c-0.3,0.1-0.5,0.5-0.4,0.8c1.1,3.8-0.8,8.5-5.5,5.9c-0.3-0.2-0.5-0.1-0.8,0.2  c-3.4,4.8-5.8,10.6-8.6,15.1c-1.5,2.4-5.1,3.8-7.3,1.5c-1.4-1.4-2-3.6-2.7-5.3c-0.5-1.2-0.9-1.2-1.3,0.1c-0.9,3-2,6.2-3.2,9.5  c-0.5,1.4-0.2,2.7-0.4,4.2C662.6,675.3,662.4,675.6,662.1,675.8z M528.5,695.5c-10.4-4.4-20-6-30.3-8.1c-0.4-0.1-0.9,0.2-1,0.6  c-1.3,4.8-0.8,9.6,1.6,14.1c7.3,14.1,18.8,22.6,34.6,25.3c6.7,1.2,14.3-2.3,20.5-4.7c0.1-0.1,0.2-0.2,0.2-0.4c0,0,0,0,0,0  c-2.5-5.4-6.1-16.2-10.5-19.4C540.6,701.1,535.6,698.5,528.5,695.5z M561.5,721.4c0.1,0.2,0.3,0.2,0.4,0.2l5.2-2.3  c0.2-0.1,0.2-0.3,0.2-0.5c0-0.1-0.1-0.1-0.1-0.1l-9.6-6.9c-0.2-0.1-0.4-0.1-0.5,0.1c-0.1,0.1-0.1,0.2,0,0.3L561.5,721.4z   M630.5,751.5c-2.8,1.5-5.5,2.8-8.2,4c-0.2,0.1-0.3,0.3-0.2,0.5c0.1,0.1,0.2,0.2,0.3,0.2c18.6,1.9,36.7,0.7,55.3-1  c1.7-0.2,3.3-0.4,4.8-0.7c0.7-0.1,1.4-0.7,1.6-1.4c4.6-11.8,8.3-23.1,8.8-36.6c0-0.3-0.1-0.5-0.5-0.4c-4.1,1.4-8.3,4.3-12,6.6  c-2,1.2-3.7,0.3-5.8,1.8C660.5,734.5,645.8,743.4,630.5,751.5z M604.7,764.7c-13.9,7.1-29.5,12.3-44.3,17.7  c-22.8,8.4-46.8,13.3-71.1,9.2c-2-0.3-3.1-1.4-3.5-3.2c-0.1-0.3-0.2-0.6-0.5-0.8c-3.2-2.6-5.8-5.8-7.7-9.5c-0.3-0.5-0.9-0.9-1.5-0.8  c-3.6,0.4-7.7-3.6-9.9-5.9c-0.4-0.4-0.5-0.3-0.5,0.2c0.4,28.4-1.5,56.9-4.9,85.1c-1.2,9.8-2,17.9-2.6,24.2  c-2.6,32.3-6.9,62.9-10.9,94.3c-2.7,21.4-3.7,42.9-3.7,64.4c0,0.3,0.3,0.6,0.6,0.6c0,0,0.1,0,0.1,0c5.9-0.9,10.8-0.8,17.3-0.2  c14.7,1.5,29.3,2.3,44.1,2.5c11.6,0.2,24,1.4,33.4,2c13.3,0.9,26.4,1.1,40.5,0.3c28.4-1.6,56.7-3.9,85-6.7c8.9-0.9,16-1.7,22.4-4  c0.7-0.2,1.1-0.9,1-1.6c-2.5-23.5-5.1-46.4-6.5-69.6c-1.5-23.7-6.1-47.1-11.1-71.2c-2.7-12.7-4.7-27.4-7.8-40.7  c-5-21.4-8.3-37.3-9.9-47.5c-2-12.8-4.1-25.3-6.6-38c-0.1-0.3-0.3-0.5-0.7-0.6c-10.7-0.5-21.4-1.2-32-2.1  C610.5,762.5,607.6,763.2,604.7,764.7z M609.3,1138.1c10.1-4.3,18.9-6.5,30-5.2c0.2,0,0.3-0.1,0.3-0.3c1.7-16.4,2.3-32.2,1.3-49.3  c-0.6-11.4-1.2-22.9-1.8-34.4c0-0.4-0.2-0.6-0.6-0.5l-40.3,3.2c-0.3,0-0.4,0.2-0.4,0.5c5.1,28.5,9.9,56.6,10.9,85.6  C608.8,1138.1,608.9,1138.2,609.3,1138.1z M554.6,1053.3l-45.1-3c-0.4,0-0.5,0.2-0.5,0.5c1.6,16.6,2.5,33.2,2.7,49.8  c0.1,11.9-0.5,26.3-0.7,39.5c0,0.4,0.2,0.5,0.5,0.3c13.7-5.2,26.5-2.4,39.2,3.9c0.2,0.1,0.4,0,0.4-0.2c0,0,0-0.1,0-0.1  c0.2-6.4,0.4-12.9,0.6-19.4c0.4-12.9,1.5-25.9,2.4-38.8c0.8-11,0.7-21.5,0.7-32.3C554.8,1053.4,554.7,1053.3,554.6,1053.3z   M600.8,1164.1c2.2-1.4,1.4-3.4,1.3-5.5c-0.9-23.9-1.9-40.9-3.2-50.8c-2.3-18.4-5-36.6-8.2-54.6c-0.1-0.6-0.6-0.9-1.1-0.9l-27.3,1.3  c-0.2,0-0.4,0.2-0.4,0.4c0.1,12.3,0.2,24-0.7,36.8c-1.9,26.2-2.7,52.3-2.3,78.6c0,1.4-0.3,2.6-1.1,3.6c-0.5,0.6-0.5,1.5-0.1,2.2  c5.4,8.1,16.1,12.9,25.4,14.2c7.4,1,14.9,1.2,22,3.8c0.3,0.1,0.6,0,0.7-0.3c0-0.1,0-0.2,0-0.3c-2.7-8.5-4.4-17.1-6.1-25.9  C599.6,1165.5,600,1164.6,600.8,1164.1z"/><path data-cppathid="10034" d="M686.1,353.4c-2.4-14.2-8-27-12.7-40.4c-1-2.8-1.1-12.5-7.2-9.8c-3.9,1.7-1.6,9.4-1.1,12.6  c1.3,10,0.6,19.9-2.2,29.5c-2.1,7.5-11.1,7.9-17.5,7.3c-11.7-1-23.6-0.6-35.2-0.7c-0.4,0-0.7-0.3-0.7-0.7c0-0.1,0-0.2,0.1-0.3  c6.7-16.6,10.4-32.6,6.1-50.6c-0.8-3.3-4.7-5.3-7-2c-0.5,0.7-0.9,1.9-1.2,3.7c-2.8,17-6.1,31.1-20.3,42c-0.7,0.6-1,0.4-0.8-0.5  c3.4-16.5,3.7-32.8,0.8-48.7c-0.6-3.2-1.5-5.8-2.7-7.8c-1.4-2.4-5.3-2.4-6.7,0.1c-0.4,0.7-0.6,1.8-0.5,3.5c0.2,10-0.4,20.3-5.1,29.3  c-10.9,20.9-40,31.6-62.3,33c-0.4,0-0.7-0.2-0.7-0.6c0-0.1,0-0.1,0-0.2c1.9-6.9,9.3-41.2,4.1-45.7c-2.8-2.4-5.9,0.5-6.5,3.6  c-1.7,9.1-3.6,16.9-5.8,23.5c-4.5,13.1-17.9,19.6-30.8,21.5c-0.3,0-0.5-0.1-0.6-0.4c0,0,0,0,0-0.1c0-0.4,0.1-0.9,0.3-1.4  c6.6-15.1,8.2-31.9,7.1-48.9c-0.2-3-1.6-6-5-5.5c-5.7,0.7-1.9,6.1-1.8,8.8c1,16-2.1,31.7-9.2,47.2c-1,2.3-0.5,4.4-1.4,6.4  c-2.2,5-4,10.2-5.4,15.3c0,0.1-0.2,0.2-0.3,0.2c-0.1,0-0.1,0-0.1-0.1c-2.2-2.5-4.4-4.2-6.5-5.1c-16.9-7-28.9,5.8-30.7,21.6  c-1.7,15.1,1.8,29.7,13.7,39.1c5,3.9,12.6,7,18.9,4.9c0.4-0.1,0.8,0.1,0.9,0.5c0,0,0,0,0,0c2.4,9.1,5.9,16.8,9.8,25.3  c1.2,2.6,2,5.1,2.5,7.7c1.5,8.4,2.5,16.9,3.1,25.4c1.4,18.9,2.6,38.1,1.1,57c-0.5,6.5-2,16.8-4.5,31c-6.2,34.8-10.4,54.9-12.2,83.8  c-1.7,26.2,2.8,49.4,11.6,75.8c2.1,6.3,4.6,12.1,7.4,17.9c0.2,0.4,0.3,0.8,0.3,1.2c0,0.2-0.2,0.3-0.4,0.3c-0.1,0-0.2-0.1-0.2-0.1  c-24.7-28.4-45.6-60.5-54.3-96.9c-1.8-7.6-3.4-17.9-4.9-31c-2.6-23.5-4.6-44.3-6.1-62.3c-1-11.7-2.2-22.7-3.7-33.1  c-2.1-14.2-2.6-29.1-5.9-42.9c-1.8-7.5-4.2-15.3-5.8-24c-0.4-2.4-1.8-4.7-2.1-6.7c-3.5-19.8-5.7-37.5-6.7-53  c-0.7-11.2,0.1-25,1-36.3c3.6-43.4,19.4-83.7,47.4-117.3c10.8-12.9,24.4-23,38.4-31.8c10-6.2,20.6-10.9,31.9-14.1  c41.6-11.8,82.7-9.2,121.5,10.4c11.4,5.8,20,13.4,29.9,20.9c7.4,5.5,12.5,9.7,15.4,12.7c11.8,11.8,20.1,26.2,25,43.3  c0.6,2,0.7,3.5,0.3,4.7c-0.1,0.3-0.1,0.6,0,1c1.7,7.9,5.6,14.7,6.4,19.7c1.5,9,1.6,18,0.5,27c-0.4,3.1-2,10.4-5.9,9.1  C687.9,361.7,686.5,355.8,686.1,353.4z" class="st6"/><path data-cppathid="10035" d="M601.8,349.5c-1.9,4.6-2,9.3,4.3,9.8c13.3,1,26.7,0.3,40.1,1c9.7,0.5,19.6-0.9,23.4-11.4c1.9-5.3,3-10,3.1-14.1  c0.1-3.5,0.6-3.6,1.4-0.1c1.8,7.7,2.9,16,3.2,25c0.1,3.8,2.1,5.2,6,4.1c0.3-0.1,0.5,0,0.5,0.3c1.2,10.4,1.8,20.8,1.9,31.2  c0,0.2-0.1,0.3-0.3,0.3c-0.1,0-0.1,0-0.2-0.1c-2.4-1.7-7.7-1.1-10.5-1.1c-0.4,0-0.6-0.3-0.7-0.6c-0.1-6.3-1.7-18.8-8.2-22  c-1.4-0.7-3.7-1.1-7.1-1.2c-16.3-0.7-32.5,0.9-48.6,4.9c-3.2,0.8-4.8,2.8-4.9,6c-0.1,3.3-0.2,6.6-0.3,10c0,0.3-0.2,0.5-0.5,0.4  c-0.9-0.1-1.8-0.4-2.6-0.4c-8.6,0.2-17.2-0.1-25.7-0.7c-2.6-0.2-5.3-1.9-7.5,1c-0.2,0.2-0.3,0.2-0.3-0.1c-0.2-4.2-0.4-8.3-0.8-12.5  c-1-10.7-5.6-11.2-15-10.9c-1.8,0.1-3.8-0.1-5.9-0.6c-4.4-0.9-9-1.3-13.6-0.9c-9.2,0.7-18.5,0.8-27.8,0.4  c-11.6-0.5-14.3,12.9-15.1,21.6c0,0.3-0.3,0.6-0.6,0.5c-9.9-0.6-19.7-2-29.4-4.3c-0.3-0.1-0.5-0.4-0.4-0.7  c1.5-7.1,3.7-13.9,6.5-20.6c0.1-0.3,0.3-0.4,0.7-0.5c13-0.9,25.9-5.9,34.8-15.5c0.4-0.5,0.6-0.4,0.5,0.2c-0.9,4.7-5.8,12.8,4,12.7  c27.2-0.2,62.6-13.5,74.4-40.4c0.3-0.8,0.5-0.7,0.6,0.1c0.1,1.7,0.1,3.6-0.1,5.7c-0.7,7.2-1.8,14.3-3.5,21.4  c-1.1,4.5,1.9,8.1,6.7,6.7c8.9-2.6,17.3-12.2,21.8-20c0.2-0.3,0.3-0.5,0.4-0.5c0.4,0.1,0.6,0.3,0.5,0.7  C605.6,339.6,603.9,344.6,601.8,349.5z" class="st7"/><path data-cppathid="10036" d="M500.7,377.9c0.8-2.3,2-3.2,4.6-3.2c9.9,0.2,19.7-0.1,29.5-0.8c1.5-0.1,3.6,0,6.4,0.2c0.3,0,0.6,0.1,0.9,0.3  c2.8,2.1,11.8,1,16.5,1.1c0.4,0,0.6,0.2,0.8,0.5c0.4,1,0.6,2.1,0.7,3.5c1,12.4,1.5,25-0.3,36.6c-0.1,0.3-0.2,0.6-0.5,0.7  c-1.5,1.1-2.8,1.6-3.8,1.6c-18.5-0.2-34.1-0.8-50.5-4.8c-2.9-0.7-8.8-1.9-8.7-5.5C496.4,398.4,497.2,387.4,500.7,377.9z   M529.3,402.3c3.6-0.2,6.3-3.8,6-7.9s-3.4-7.4-6.9-7.2h0c-3.6,0.2-6.3,3.8-6,7.9C522.6,399.3,525.7,402.5,529.3,402.3  C529.3,402.3,529.3,402.3,529.3,402.3z" class="st8"/><path data-cppathid="10037" d="M671,421.8c4.4-0.5,6.3-5.2,2-7.4c-0.3-0.1-0.3-0.4-0.2-0.6c2.4-3.5,1.9-7.8,1.8-11.8c0-0.4,0.2-0.6,0.6-0.5  c3.2,0.3,6.5,0.6,9.6-0.5c0.3-0.1,0.4,0,0.4,0.3c-0.8,22.6-5.2,44.5-15,64.1c-9.1,18.2-22.8,28.4-37.8,40.2  c-12.7,10-30.7,15.2-46.2,15.3c-12,0.1-23.9-0.8-35.7-2.5c-31.7-4.7-63.6-21.7-79.5-50.5c-3.1-5.6-5.3-9.6-6.6-12.1  c-3.3-6.2-7.5-15.7-7.9-23.1c0-0.5-0.4-1.1-1-1.7c-5.4-5.2-8.3,0.9-14.3-1.5c-8-3.2-13.1-8.6-15.5-16.2c-3-10-3.7-23.5,3.4-31.9  c5.2-6.2,14.5-6,19.3,0.4c0.2,0.2,0.2,0.5,0,0.8c-0.3,0.6-0.7,1.1-1,1.6c-2.2,3.6,0.7,4.8,3.5,5.2c0.3,0.1,0.6,0.2,0.8,0.5  c2.2,2.9,4.7,1.5,7.3,2.2c9.9,2.6,16.7,3.4,29.4,4.8c0.4,0,0.5,0.2,0.5,0.6c-0.4,7.5-3.2,17,6.3,21c3.4,1.5,7,2.6,10.6,3.4  c15.5,3.3,31.3,4,47.1,4.1c2.4,0,5.2,0.2,7.2-0.8c2.1-1.1,2.1-2.5,3.1-4.4c0.2-0.3,0.4-0.5,0.7-0.6c3.7-0.9,3.6-4.7,3.8-8.4  c0.3-5.8,0.5-11.6,0.4-17.2c0-0.4,0.1-0.4,0.3-0.1c1.2,1.9,2.2,2.6,4.5,2.8c9.2,1,18.4,1.4,27.6,1.2c1.1,0,2.2-0.4,3.3-0.7  c0.4-0.1,0.6,0.1,0.6,0.5c-0.6,11.9-2.1,22.5,13.2,24.6c8,1.1,16.1,1.5,24.2,1.5C651,424.4,661.3,422.9,671,421.8z M443.9,398  c7.4-1.2,3.6,7.1,9.1,6.5c3.6-0.3,3.5-5.1,2.5-7.4c-3.2-7.9-15.9-8.4-20.4-1.5c-7.1,10.8,0.9,24.3,12.4,27.6c2.6,0.7,5,0.4,7.3-1  c2.3-1.4,3.3-4.1,1.1-6.1c-1.9-1.7-5,0-7.2-0.6c-6-1.6-9.8-8-8.4-14C440.6,399.9,442,398.3,443.9,398z M585.3,451.1  c1.5,1.4,4.7,0.5,7.2-2c2.5-2.6,3.3-5.8,1.8-7.3c0,0,0,0,0,0c-1.5-1.4-4.7-0.5-7.2,2C584.6,446.4,583.8,449.6,585.3,451.1  C585.3,451.1,585.3,451.1,585.3,451.1z M553.4,474.5c13.3,8.3,27.3,6.6,41.1,0.6c2.1-0.9,3.4-2,3.7-3.2c1-3.5-2.3-5.6-5.2-4.4  c-12.6,5.3-23.5,8.4-36.2,0.8c-1.2-0.7-3.3-2.1-6.4-4.2c-2-1.4-3.8-1.2-5.4,0.5l-0.6,0.6c-0.9,1-0.9,2.5,0,3.4  c0.1,0.1,0.2,0.2,0.3,0.3C547.7,470.9,550.5,472.7,553.4,474.5z" class="st7"/><path data-cppathid="10038" d="M665.8,412.8l0.5,1.2c0.1,0.3,0,0.5-0.3,0.5c-5.2,0.7-10.4,1.3-15.6,1.8c-8.8,0.9-17.5,0.5-26.3,0  c-3-0.1-9.8-0.9-11.6-3.6c-0.6-1-1-2.9-0.9-5.7c0.1-8.3,0.5-16.5,1.1-24.7c0-0.1,0.1-0.3,0.3-0.3c15-3.4,30.1-4.7,45.5-4  c1.5,0.1,2.9,0.3,4.2,0.8c0.3,0.1,0.6,0.3,0.7,0.7c2.1,5,3.1,10.2,3.1,15.5c0,6.2,1.7,10.5-0.6,16.8  C665.6,412.2,665.6,412.5,665.8,412.8z M642.7,391.6l-6,3.3c-1.5,0.9-2.1,2.8-1.2,4.3c0,0,0,0,0,0l1.7,3c1.9,3.4,5.8,4.8,8.8,3.1  l0.7-0.4c3-1.7,3.9-5.8,2-9.1c0,0,0,0,0,0l-1.7-3C646.1,391.3,644.2,390.7,642.7,391.6z" class="st8"/><ellipse data-cppathid="10039" ry="7.6" rx="6.5" cy="394.7" cx="528.9" transform="matrix(0.9982 -5.930640e-02 5.930640e-02 0.9982 -22.4797 32.0602)"/><path data-cppathid="10040" d="M443.9,398c-1.8,0.3-3.2,1.8-3.6,3.5c-1.3,6,2.5,12.4,8.4,14c2.2,0.6,5.3-1.1,7.2,0.6c2.3,2,1.2,4.7-1.1,6.1  c-2.3,1.4-4.7,1.8-7.3,1c-11.4-3.3-19.4-16.8-12.4-27.6c4.5-6.9,17.2-6.4,20.4,1.5c1,2.4,1,7.1-2.5,7.4  C447.4,405.1,451.2,396.9,443.9,398z"/><path data-cppathid="10041" d="M642.7,391.6c1.5-0.9,3.5-0.3,4.3,1.2l1.7,3c1.9,3.4,1,7.5-2,9.1c0,0,0,0,0,0l-0.7,0.4c-3,1.7-6.9,0.3-8.8-3.1l-1.7-3  c-0.9-1.5-0.3-3.5,1.2-4.3c0,0,0,0,0,0L642.7,391.6z"/><ellipse data-cppathid="10042" ry="3.8" rx="6.5" cy="446.4" cx="589.8" transform="matrix(0.6972 -0.7169 0.7169 0.6972 -141.4425 558.0387)"/><path data-cppathid="10043" d="M594.5,475.1c-13.7,6-29.3,9.9-41.1-0.6c-2.9-1.8-5.7-3.6-8.6-5.6c-1.1-0.7-1.4-2.2-0.6-3.3c0.1-0.1,0.2-0.2,0.3-0.3  l0.6-0.6c1.7-1.7,3.5-1.9,5.4-0.5c3,2.1,5.1,3.5,6.4,4.2c12.7,7.5,23.6,4.4,36.2-0.8c2.9-1.2,6.2,0.9,5.2,4.4  C597.8,473.1,596.6,474.2,594.5,475.1z"/><path data-cppathid="10044" d="M473,562.1c0.9-5.7,1.4-11.4,1.5-17.1c0.5-20.8-0.6-41.2-3.3-61.3c-0.1-1.1,0.1-1.2,0.8-0.3  c3.4,4.5,7.2,8.7,11.6,12.6c1.6,1.5,0.9,2.7,1.6,4.4c1,2.5,1.5,5.1,1.6,7.9c0.4,13.5-1,25.7-4.1,36.7c-2,7.2-3.3,12.4-3.9,15.7  c0,0.3-0.2,0.5-0.4,0.7l-5,3.8c-0.1,0.1-0.4,0.1-0.5-0.1c0-0.1-0.1-0.1-0.1-0.2C472.8,564,472.9,563,473,562.1z" class="st6"/><path data-cppathid="10045" d="M654.7,497.5c0.7,0.2,1.4,0.2,2,0c1.1,2.2,1.3,4.5,0.5,6.9c-0.1,0.3-0.1,0.6,0,1c1.5,7.3,2.1,14.7,1.7,22.1  c-0.3,4.9,0.4,10.2,1.4,14c2.2,9,4.3,18,6.2,27c0.3,1.3,0.8,2.6,1.5,3.8c1.3,2.1,3.4,5.7,2,8.1c-1.6,2.7-4.5,1.8-6.1-0.4  c-2.7-3.6-6.3-8.7-6.4-13.4c0-0.3,0.1-0.6,0.3-0.8l0.9-1.4c0.2-0.3,0.2-0.6,0.1-1c-2.7-8.1-5.3-16.2-7.6-24.3c-0.8-2.9-3-4.1-4-6.9  c-2.2-6.1-4.3-12.8-3.9-19.4c0-0.3-0.1-0.6-0.2-0.9c-1.4-2.2-1.2-4.2,0.5-6C646.4,502.9,650.1,498.9,654.7,497.5z" class="st6"/><path data-cppathid="10046" d="M489,550.3c4.3-15,5.8-30.3,4.6-45.8c0-0.4,0.1-0.5,0.4-0.3c2.3,1.6,5.4,4.6,8.4,4.1c3.2-0.5,5,0.9,5.6,4.4  c1,6,4.7,31.5-0.7,34.5c-6.1,3.4-12.4,6.3-18.8,8.6c-0.3,0.1-0.6,0-0.7-0.3c0-0.1,0-0.2,0-0.3C488.1,553.5,488.6,551.9,489,550.3z" class="st6"/><path data-cppathid="10047" d="M651.8,566.5c0.1,0.2,0,0.3-0.2,0.4c-0.1,0-0.2,0-0.3,0c-1.1-0.8-2.2-1.8-3.5-2.3c-7.1-2.6-14-5.5-20.5-9.4  c-0.3-0.2-0.5-0.4-0.7-0.7c-3.9-8.6-6.6-17.6-8-27c-0.3-1.8-0.8-3-2.2-4c-0.2-0.1-0.3-0.4-0.1-0.6c0.1-0.1,0.1-0.2,0.2-0.2  c7-2.2,13.4-5.4,19.2-9.8c0.2-0.2,0.6-0.1,0.8,0.1c0,0.1,0.1,0.1,0.1,0.2C641.1,531.2,646.1,549,651.8,566.5z" class="st6"/><path data-cppathid="10048" d="M515.8,517.4c0.1-0.3,0.4-0.4,0.7-0.3c2.4,0.6,4.8,0.3,6.8,1.9c5.9,4.7,8.2,10.9,4.5,18c-1.4,2.7-4.2,4-6.8,5.5  c-3.8,2.3-5.2-2.3-5.3-5.2c-0.3-4.6-0.7-9.1-1.4-13.6C513.9,521.2,514.9,519.6,515.8,517.4z" class="st6"/><path data-cppathid="10049" d="M569.8,544.2c1.6,1.5,3.1,1.4,5.2,0.9c0.3-0.1,0.6-0.1,0.9,0c5.3,1.8,10.6,3.5,16,4.9c2.5,0.7,3.7,2.3,4.9,4.4  c0.1,0.1,0,0.3-0.1,0.4c-16.1,13.1-36.2,16.6-55.7,9.9c-8.4-2.9-17.3-7.9-23.5-14.3c-0.3-0.3-0.3-0.8,0-1.1c0,0,0.1-0.1,0.2-0.1  l17.4-10.6c1-0.6,1.4-1.5,1.2-2.6l-1.7-12.3c0-0.3,0.1-0.4,0.4-0.4c9.9,2.3,19.9,3.8,30,4.4c0.9,0.1,1.7,0.7,1.9,1.6  c0.6,2.2,0.9,4.3,1.1,6.5C568.2,539.2,566.6,541.4,569.8,544.2z" class="st7"/><path data-cppathid="10050" d="M598.8,543.2c-1.7-4.6-2.8-9.9-2.9-14.8c0-0.1,0.1-0.2,0.2-0.2c5-0.5,9.9-1.6,14.7-3.3c0.3-0.1,0.7,0,0.8,0.4  c0,0.1,0,0.2,0,0.2c-0.3,4.3,0.5,8.4,2.1,12.4c0.2,0.5,0.5,1.5,0.7,2.9c0.5,2.8,2.9,3.2,3.9,4.9c1.3,2.2,0.3,6.3-2.9,6  c-1.9-0.2-3-2.1-4.6-2.5c-3.8-0.9-7.5-2.4-10.9-4.6C599.4,544.2,599.1,543.7,598.8,543.2z" class="st6"/><path data-cppathid="10051" d="M575.4,537.1l-1.1-7.3c-0.1-0.5,0.3-1,0.8-1.1c0.1,0,0.1,0,0.2,0l13.1,0.2c0.4,0,0.7,0.3,0.7,0.7  c0,0,0,0.1,0,0.1c-0.5,3.5,0.9,8.1,1.7,11.5c0.1,0.4-0.2,0.9-0.6,1c-0.1,0-0.3,0-0.4,0l-13.6-4.1  C575.7,537.7,575.5,537.5,575.4,537.1z" class="st6"/><path data-cppathid="10052" d="M636.5,667.6c2.7-0.6,4.5-1.7,5.2-3.2c0.1-0.2,0.4-2,0.7-5.2c0.8-6.8,0.1-13.5-2.1-20  c-1.4-4.1-0.8-8.6-2.6-12.2c-3-6.3-9.6-8.8-14.9-3.2c-0.9,1-1.9,1.8-2.9,2.5c-3.6,1-2.6,4.4-1.5,7.1c2.3,5.6,4.4,11.3,6.1,17.1  c-0.1,1.7,0.4,3.2,1.4,4.6c2.7,9,4.5,18.1,5.5,27.4c0,0.3-0.1,0.7-0.4,0.8c-17,10.7-34.5,21.2-52.9,29.6c-0.6,0.3-1.2,0.3-1.8,0  c-2.7-1.2-5.4-1.3-7.9-3c-3.9-2.7-7.6-5.6-11.7-8c-2.8-1.6-5.5-3.3-8.1-5.1c-2.4-1.6-4.9-3-7.5-4.1c-6.9-3-12.2-5.7-20.5-8  c-0.3-0.1-0.5-0.3-0.6-0.7c-0.1-0.9-0.5-1.9-1.1-3.1c3.4-1.2,5.4-3.1,6.1-5.8c0.6-2.2,0.8-4.5,0.6-6.8c-0.3-3.5-3.4-9.9-3-13.3  c0.6-4.4,0.7-8.6,0.4-12.5c-0.6-7.9-6-19.4-16.1-16.2c-5.5,1.7-8.1,7.5-9.9,12.5c-5.7,3.2,0.1,8.9,1.8,12.7  c4.4,9.4,8.1,18.5,11.3,27.3c0.9,2.5,4.5,3,6.4,4.1c1.3,0.8,1.2,1-0.3,0.7c-6.4-1.4-13.5-2.2-19.8-4.4c-3.5-1.2-3.9,0.9-4.9,3.3  c-3.2,7.2-3.2,14.3,0,21.3c5.6,12.1,15.6,22.9,28.2,27.5c1.1,0.4,1,0.7-0.1,0.8c-9.3,1.2-17.7,3.4-27.3,2.9  c-1.3-0.1-2.4,0.9-2.4,2.2c0,0.1,0,0.2,0,0.3l0.1,0.8c0.2,2.2,1.4,3.4,3.6,3.7c3.7,0.4,7.4,0.3,11.1-0.3c8.3-1.3,16.7-2.8,25-4.3  c9.9-1.8,18.5-4.7,27.2-7.4c0.3-0.1,0.7-0.1,1,0c3.6,1.4,4.7-1.3,7.2-2.4c4.7-2.1,9.4-4.2,14-6.3c4-1.8,8.4-4.7,13.2-7  c5.5-2.6,15.1-8.1,28.9-16.4c10.6-6.4,21.1-12.9,31.6-19.4c0.2-0.1,0.5-0.1,0.7,0.2c0,0,0,0.1,0.1,0.1c4.3,13.4,11,24.3,18.1,36.4  c0.4,0.6,0.2,1.4-0.4,1.8c-22.3,16.3-48,29.9-73.1,41.7c-14.3,6.7-29.8,12.1-44.9,17.6c-18.5,6.8-41.6,11.3-61.7,8.2  c-0.4-0.1-0.6-0.3-0.7-0.6c-0.3-1.1-0.5-1.9-1.3-2.8c-2.5-2.8-4.9-6.1-7.2-10.1c-6.5-11-11.5-22.2-14.9-33.5  c-3.6-11.9-7.4-26.6-11.2-44.1c-1-4.7-1.1-9.1-0.2-13.3c1.5-7.2,1.5-14.5,1.9-21.8c0.2-2.9-0.7-6.6-0.2-9.2  c0.6-3.4,2.1-9.3,4.4-17.6c0.6-2.1-0.2-3.5,0.1-5.4c3-16.5,5.9-32.9,8.7-49.4c0.1-0.3,0.2-0.6,0.4-0.8c6.2-5.8,10.8-9.4,13.7-10.8  c0.9-0.5,2.5-0.6,3.7-1.2c6.7-3.4,13.7-5.8,20.3-9.5c0.8-0.5,1.9-0.3,2.6,0.3c12,11.7,28.1,19.4,44.8,20.6  c14.1,1,27.4-2.6,39.9-10.9c4.3-2.8,7.6-5.8,10-9c0.2-0.3,0.5-0.4,0.8-0.5c3.5-0.6,9.5,2.8,11.9,4.1c3,1.6,6.2,9.8,10.2,6.6  c0.5-0.4,1-0.4,1.5-0.2c4.9,2.1,8.7,3.9,14.2,6.3c8.8,3.7,13.1,10,18.4,17.5c1.8,2.6,5,6.1,6.4,9.2c5.9,13.1,10.5,26.8,13.7,41  c0.1,0.4,0,0.7-0.3,1c-3.9,4.6-7.1,9.7-9.5,15.3c-0.2,0.5-0.4,0.5-0.7,0c-1.7-2.8-3.5-5.9-7.3-5.3c-6,0.9-8.2,12.9-9.7,17.5  c-0.2,0.7-0.9,1.3-1.6,1.5c-5.4,1.4-10.8,5.4-15.5,8.4c-0.2,0.1-0.5,0.1-0.7-0.1c0-0.1-0.1-0.1-0.1-0.2L636.5,667.6z" class="st9"/><path data-cppathid="10053" d="M636.5,667.6c-2.3-5-4.2-10.2-5.6-15.6c-0.6-2.3,0-4.8-1-6.9c-0.7-1.5-1.4-3.1-1.9-4.7  c-0.8-2.3-2.8-4.9-2.8-8.3c0-0.3-0.2-0.5-0.5-0.6c-2.5-0.7-4.3-1-3.9-4.4c0-0.3-0.1-0.6-0.3-0.8c-0.3-0.2-0.5-0.2-0.6,0  c1-0.7,2-1.5,2.9-2.5c5.4-5.6,11.9-3.1,14.9,3.2c1.7,3.7,1.2,8.1,2.6,12.2c2.2,6.5,2.9,13.2,2.1,20c-0.4,3.3-0.6,5-0.7,5.2  C640.9,665.9,639.2,667,636.5,667.6z" class="st10"/><path data-cppathid="10054" d="M518.9,681l-3-2c-1-0.7-1.5-1.8-1.3-2.9c0.5-4.2-2-6.7-2.9-10.4c-2-7.8-5.5-17.6-13-21.3  c-0.3-0.2-0.5-0.4-0.7-0.7c-0.5-1.2-0.8-2.8-0.8-4.7c1.7-5,4.3-10.7,9.9-12.5c10.1-3.2,15.5,8.4,16.1,16.2c0.3,3.9,0.2,8.1-0.4,12.5  c-0.5,3.3,2.6,9.8,3,13.3c0.2,2.3,0,4.5-0.6,6.8C524.4,677.9,522.3,679.9,518.9,681z" class="st10"/><path data-cppathid="10055" d="M662.6,674.9c0.2-1.5-0.2-2.8,0.4-4.2c1.2-3.3,2.2-6.5,3.2-9.5c0.4-1.3,0.8-1.3,1.3-0.1  c0.7,1.6,1.3,3.9,2.7,5.3c2.3,2.4,5.8,1,7.3-1.5c2.9-4.6,5.3-10.3,8.6-15.1c0.2-0.3,0.5-0.3,0.8-0.2c4.8,2.5,6.7-2.1,5.5-5.9  c-0.1-0.3,0.1-0.7,0.4-0.8l4.3-2c0.4-0.2,0.8-0.1,1.1,0.2c1.6,1.6,2.4,3.4,2.7,5.4c0.1,1.1-0.2,2.8-1.1,5.2  c-1.1,3.1-3.5,13,2.4,13.2c3.2,0.1,4.4-3,4.8-5.7c0.2-1.4,0.6-1.4,1.1-0.2c3.4,7.8,3.1,18.9,1.6,27.1c-0.5,2.4-1.9,5.1-4.3,7.9  c-1.1,1.3-1.2,3.6-2.6,5.2c-6.3,7-14.7,9.7-22.6,14.5c-0.3,0.2-0.6,0.1-0.7-0.2c-7.1-11.9-13.9-21.9-18.8-36.1  c-0.1-0.3,0-0.6,0.3-0.8l1.2-1C662.4,675.6,662.6,675.3,662.6,674.9z" class="st7"/><path data-cppathid="10056" d="M624.5,650.5c0.8,1.4,1.3,2.9,1.4,4.6C624.9,653.6,624.5,652.1,624.5,650.5z" class="st10"/><path data-cppathid="10057" d="M528.5,695.5c7.1,3,12.1,5.5,14.9,7.6c4.4,3.2,8,14,10.5,19.4c0.1,0.1,0,0.3-0.1,0.4c0,0,0,0,0,0  c-6.1,2.4-13.8,5.8-20.5,4.7c-15.8-2.7-27.3-11.2-34.6-25.3c-2.4-4.6-2.9-9.3-1.6-14.1c0.1-0.4,0.5-0.7,1-0.6  C508.5,689.6,518.1,691.1,528.5,695.5z" class="st7"/><path data-cppathid="10058" d="M630.5,751.5c15.3-8.1,30-17,44.2-26.9c2.2-1.5,3.8-0.6,5.8-1.8c3.7-2.3,7.9-5.2,12-6.6c0.3-0.1,0.5,0,0.5,0.4  c-0.5,13.5-4.2,24.8-8.8,36.6c-0.3,0.7-0.9,1.2-1.6,1.4c-1.5,0.3-3.1,0.5-4.8,0.7c-18.6,1.7-36.8,2.9-55.3,1c-0.2,0-0.3-0.2-0.3-0.4  c0-0.1,0.1-0.2,0.2-0.3C625,754.3,627.7,753,630.5,751.5z" class="st9"/><path data-cppathid="10059" d="M604.7,764.7c2.9-1.5,5.9-2.1,8.8-1.9c10.6,1,21.3,1.7,32,2.1c0.3,0,0.6,0.2,0.7,0.6c2.5,12.7,4.7,25.3,6.6,38  c1.6,10.2,4.9,26.1,9.9,47.5c3.1,13.4,5.2,28,7.8,40.7c5,24.1,9.6,47.5,11.1,71.2c1.4,23.2,4,46,6.5,69.6c0.1,0.7-0.3,1.4-1,1.6  c-6.4,2.4-13.4,3.1-22.4,4c-28.3,2.9-56.6,5.1-85,6.7c-14.1,0.8-27.2,0.7-40.5-0.3c-9.4-0.7-21.7-1.9-33.4-2  c-14.7-0.2-29.4-1-44.1-2.5c-6.6-0.7-11.5-0.7-17.3,0.2c-0.3,0-0.7-0.2-0.7-0.5c0,0,0-0.1,0-0.1c0-21.5,1-43,3.7-64.4  c3.9-31.4,8.3-62,10.9-94.3c0.5-6.4,1.4-14.4,2.6-24.2c3.4-28.2,5.3-56.7,4.9-85.1c0-0.5,0.2-0.6,0.5-0.2c2.2,2.3,6.3,6.2,9.9,5.9  c0.6-0.1,1.2,0.3,1.5,0.8c1.9,3.7,4.5,6.9,7.7,9.5c0.2,0.2,0.4,0.5,0.5,0.8c0.3,1.8,1.5,2.9,3.5,3.2c24.3,4,48.4-0.9,71.1-9.2  C575.1,776.9,590.8,771.8,604.7,764.7z" class="st9"/><path data-cppathid="10060" d="M639.3,1132.8c-11.1-1.3-19.9,0.9-30,5.2c-0.3,0.1-0.5,0-0.5-0.3c-1-29-5.8-57.1-10.9-85.6  c-0.1-0.3,0.1-0.5,0.4-0.5l40.3-3.2c0.4,0,0.6,0.1,0.6,0.5c0.6,11.5,1.1,23,1.8,34.4c1,17.1,0.4,32.9-1.3,49.3  C639.6,1132.8,639.5,1132.9,639.3,1132.8z" class="st7"/><path data-cppathid="10061" d="M509.5,1050.3l45.1,3c0.1,0,0.2,0.1,0.2,0.2c0.1,10.8,0.1,21.3-0.7,32.3c-0.9,13-2,25.9-2.4,38.8  c-0.2,6.5-0.4,13-0.6,19.4c0,0.2-0.2,0.3-0.3,0.3c0,0-0.1,0-0.1,0c-12.8-6.3-25.5-9.1-39.2-3.9c-0.3,0.1-0.5,0-0.5-0.3  c0.2-13.2,0.9-27.7,0.7-39.5c-0.2-16.6-1.1-33.3-2.7-49.8C508.9,1050.4,509.1,1050.2,509.5,1050.3z" class="st7"/></svg>